<svg width="18" height="14" viewBox="0 0 18 14" fill="none" xmlns="http://www.w3.org/2000/svg">
<path d="M14.8334 0.333496H3.16669C2.50365 0.333496 1.86776 0.596888 1.39892 1.06573C0.930079 1.53457 0.666687 2.17045 0.666687 2.8335V11.1668C0.666687 11.8299 0.930079 12.4658 1.39892 12.9346C1.86776 13.4034 2.50365 13.6668 3.16669 13.6668H14.8334C15.4964 13.6668 16.1323 13.4034 16.6011 12.9346C17.07 12.4658 17.3334 11.8299 17.3334 11.1668V2.8335C17.3334 2.17045 17.07 1.53457 16.6011 1.06573C16.1323 0.596888 15.4964 0.333496 14.8334 0.333496V0.333496ZM3.16669 2.00016H14.8334C15.0544 2.00016 15.2663 2.08796 15.4226 2.24424C15.5789 2.40052 15.6667 2.61248 15.6667 2.8335L9.00002 6.90016L2.33335 2.8335C2.33335 2.61248 2.42115 2.40052 2.57743 2.24424C2.73371 2.08796 2.94567 2.00016 3.16669 2.00016V2.00016ZM15.6667 11.1668C15.6667 11.3878 15.5789 11.5998 15.4226 11.7561C15.2663 11.9124 15.0544 12.0002 14.8334 12.0002H3.16669C2.94567 12.0002 2.73371 11.9124 2.57743 11.7561C2.42115 11.5998 2.33335 11.3878 2.33335 11.1668V4.7335L8.56669 8.54183C8.69337 8.61497 8.83707 8.65347 8.98335 8.65347C9.12963 8.65347 9.27334 8.61497 9.40002 8.54183L15.6667 4.7335V11.1668Z" fill="#6C6C6C" fill-opacity="0.7"/>
</svg>
