<svg width="40" height="39" viewBox="0 0 40 39" fill="none" xmlns="http://www.w3.org/2000/svg">
<path d="M20.8921 35.3591V22.911H16.7031V18.0597H20.8921V14.482C20.5703 11.2697 22.9134 8.40477 26.1257 8.08295C26.46 8.04946 26.7966 8.04485 27.1318 8.06918C28.3821 8.06478 29.6317 8.12863 30.875 8.26044V12.5994L28.3062 12.6007C26.2919 12.6007 25.9019 13.5578 25.9019 14.9624V18.0597H30.7059L30.0804 22.9111H25.9021V35.3591L20.8921 35.3591Z" fill="#EB5E28"/>
<path d="M34.2586 3.21448H5.32666C4.43906 3.21448 3.71942 3.93402 3.71942 4.82172V33.7536C3.71942 34.6413 4.43906 35.3609 5.32666 35.3609H34.2587C35.1463 35.3609 35.8659 34.6413 35.8659 33.7536V4.82172C35.8659 3.93402 35.1462 3.21448 34.2586 3.21448ZM30.875 12.5995L28.3061 12.6008C26.2919 12.6008 25.9019 13.5579 25.9019 14.9625V18.0598H30.7059L30.0803 22.9111H25.9021V35.3592H20.8921V22.9111H16.7031V18.0598H20.8921V14.482C20.5702 11.2698 22.9134 8.40485 26.1256 8.0831C26.46 8.04956 26.7966 8.04494 27.1317 8.06926C28.382 8.06484 29.6317 8.12871 30.875 8.26055V12.5995Z" fill="#FFFCF2"/>
</svg>
