<svg width="39" height="39" viewBox="0 0 39 39" fill="none" xmlns="http://www.w3.org/2000/svg">
<path d="M34.076 12.1569C34.0634 11.0378 33.8581 9.92935 33.469 8.88006C33.1863 8.11352 32.7353 7.42011 32.1492 6.85084C31.58 6.26469 30.8866 5.8137 30.12 5.53108C29.0705 5.14306 27.9622 4.93777 26.8433 4.92411C24.9817 4.84068 24.4246 4.82178 19.7127 4.82178C15.0026 4.82178 14.4437 4.83899 12.5831 4.92411C11.4641 4.93669 10.3556 5.14202 9.30627 5.53108C8.53944 5.81328 7.84591 6.26436 7.27705 6.8509C6.6919 7.42125 6.24107 8.11469 5.95723 8.88093C5.56927 9.93052 5.36398 11.0388 5.35025 12.1577C5.26689 14.0192 5.24799 14.5764 5.24799 19.2882C5.24799 23.9999 5.2652 24.558 5.3512 26.4179C5.3638 27.5369 5.56913 28.6454 5.95818 29.6947C6.24026 30.4613 6.69134 31.1545 7.27793 31.7229C7.84752 32.3086 8.54084 32.7595 9.30715 33.0427C10.3564 33.4318 11.4649 33.6372 12.5839 33.6498C14.4437 33.7358 15.0026 33.7521 19.7127 33.7521C24.4246 33.7521 24.9834 33.7349 26.8432 33.6498C27.9622 33.6372 29.0707 33.4318 30.12 33.0427C31.6588 32.4494 32.8752 31.2333 33.469 29.6946C33.8572 28.6451 34.0625 27.5368 34.076 26.4178C34.1612 24.5563 34.1783 23.9975 34.1783 19.2874C34.1783 14.5755 34.1611 14.0184 34.076 12.1569Z" fill="white"/>
<path d="M29.0241 12.2437C28.6227 11.2017 27.7992 10.3782 26.7573 9.97682C26.0469 9.71442 25.2968 9.57548 24.5396 9.56598C23.2798 9.5087 22.9012 9.49634 19.7136 9.49634C16.526 9.49634 16.1479 9.50791 14.8891 9.56579C14.1317 9.57429 13.3816 9.71327 12.6714 9.97663C11.6295 10.378 10.8059 11.2015 10.4045 12.2435C10.1422 12.9539 10.0033 13.7039 9.99377 14.4611C9.93677 15.721 9.92432 16.098 9.92432 19.2871C9.92432 22.4762 9.93589 22.8543 9.99377 24.1131C10.0023 24.8704 10.1412 25.6206 10.4045 26.3308C10.8065 27.3722 11.6299 28.1952 12.6714 28.5966C13.3816 28.8598 14.1318 28.9987 14.8891 29.0075V29.0077C16.1475 29.0655 16.5245 29.0771 19.7136 29.0771C22.9027 29.0771 23.2808 29.0655 24.5396 29.0077C25.2969 28.9991 26.0471 28.8601 26.7573 28.5968C27.7988 28.1953 28.6222 27.3723 29.0241 26.331C29.2868 25.6206 29.4257 24.8705 29.435 24.1133C29.4928 22.8534 29.5044 22.4764 29.5044 19.2873C29.5044 16.0982 29.4928 15.7211 29.435 14.4613C29.4264 13.704 29.2874 12.9538 29.0241 12.2437ZM19.7136 25.4189C16.3271 25.419 13.5817 22.6738 13.5816 19.2872C13.5816 19.2871 13.5816 19.287 13.5816 19.2869H13.5817C13.5817 15.9003 16.3271 13.155 19.7137 13.155C23.1003 13.155 25.8457 15.9004 25.8457 19.287C25.8456 22.6736 23.1002 25.419 19.7136 25.4189ZM26.0879 14.3453C25.2965 14.3424 24.6573 13.6985 24.6602 12.907C24.6631 12.1195 25.301 11.4819 26.0885 11.4793H26.0891C26.8805 11.4769 27.524 12.1166 27.5263 12.908C27.5287 13.6995 26.889 14.343 26.0976 14.3453C26.0944 14.3453 26.0911 14.3453 26.0879 14.3453H26.0879Z" fill="#EB5E28"/>
<path d="M19.7136 15.3059C17.515 15.3059 15.7326 17.0882 15.7326 19.2868C15.7326 21.4854 17.5149 23.2678 19.7135 23.2679C21.9121 23.2679 23.6945 21.4856 23.6946 19.2869V19.2869C23.6948 17.0885 21.9129 15.3062 19.7145 15.3059C19.7142 15.3059 19.7139 15.3059 19.7136 15.3059Z" fill="#EB5E28"/>
<path d="M35.6719 11.3646C35.6579 10.1212 35.4297 8.8896 34.9974 7.72375C34.6833 6.87203 34.1822 6.10158 33.531 5.46907C32.8986 4.81776 32.1281 4.31664 31.2763 4.0026C30.1101 3.57146 28.8787 3.34336 27.6355 3.32817C25.5671 3.23547 24.9481 3.21448 19.7127 3.21448C14.4792 3.21448 13.8583 3.2336 11.7908 3.32817C10.5475 3.34217 9.31587 3.57032 8.15002 4.0026C7.29799 4.31614 6.52742 4.81735 5.89534 5.46907C5.24517 6.10277 4.74425 6.87326 4.42887 7.72464C3.99778 8.89085 3.76968 10.1223 3.75444 11.3655C3.66174 13.4339 3.64075 14.053 3.64075 19.2882C3.64075 24.5235 3.65987 25.1436 3.75542 27.2101C3.76946 28.4534 3.99762 29.6851 4.4299 30.851C4.74335 31.7027 5.24456 32.473 5.89636 33.1046C6.52925 33.7553 7.29958 34.2564 8.15105 34.571C9.31688 35.0034 10.5485 35.2316 11.7919 35.2456C13.8583 35.3411 14.4792 35.3593 19.7127 35.3593C24.9481 35.3593 25.569 35.3402 27.6355 35.2456C28.8788 35.2316 30.1105 35.0034 31.2763 34.5711C32.9861 33.9118 34.3377 32.5606 34.9974 30.851C35.4287 29.6848 35.6568 28.4533 35.6719 27.2101C35.7664 25.1418 35.7856 24.5208 35.7856 19.2874C35.7856 14.052 35.7664 13.433 35.6719 11.3646ZM31.5832 24.2102C31.5641 25.2009 31.3765 26.1812 31.0286 27.1089C30.4082 28.7132 29.14 29.9814 27.5357 30.6019C26.6078 30.9494 25.6277 31.1369 24.6371 31.1565C23.3638 31.2154 22.9567 31.2288 19.7136 31.2288C16.4706 31.2288 16.0642 31.2144 14.7902 31.1565C13.7996 31.1368 12.8195 30.9492 11.8916 30.6019C10.2873 29.9815 9.01904 28.7133 8.39871 27.109C8.05121 26.1811 7.86366 25.2009 7.84405 24.2103C7.78519 22.9371 7.77172 22.5299 7.77172 19.2869C7.77172 16.0439 7.78526 15.6368 7.84405 14.3635C7.86368 13.3728 8.05121 12.3927 8.39871 11.4649C9.01894 9.86048 10.2872 8.59218 11.8916 7.97191C12.8195 7.62439 13.7996 7.43683 14.7902 7.4172H14.7907C16.0647 7.35844 16.4725 7.34488 19.715 7.34488C22.9575 7.34488 23.3645 7.35899 24.638 7.4172C25.6287 7.43659 26.6088 7.62417 27.5367 7.97191C29.1405 8.59269 30.4083 9.86082 31.0286 11.4648C31.3761 12.3927 31.5637 13.3728 31.5832 14.3634C31.6411 15.6367 31.6546 16.0438 31.6546 19.2868C31.6546 22.5299 31.6411 22.936 31.5832 24.2102Z" fill="#FFFCF2"/>
</svg>
