<svg width="11" height="14" viewBox="0 0 11 14" fill="none" xmlns="http://www.w3.org/2000/svg">
<path d="M5.79314 5.95885C6.05002 5.95885 6.30114 5.88267 6.51474 5.73995C6.72834 5.59723 6.89481 5.39438 6.99312 5.15705C7.09143 4.91971 7.11715 4.65856 7.06703 4.4066C7.01692 4.15465 6.89321 3.92322 6.71156 3.74157C6.52992 3.55992 6.29848 3.43622 6.04653 3.3861C5.79458 3.33598 5.53342 3.3617 5.29609 3.46001C5.05875 3.55832 4.8559 3.7248 4.71318 3.93839C4.57046 4.15199 4.49428 4.40311 4.49428 4.66C4.49428 5.00447 4.63112 5.33484 4.87471 5.57843C5.11829 5.82201 5.44866 5.95885 5.79314 5.95885ZM5.33204 10.4464C5.39241 10.5073 5.46424 10.5556 5.54338 10.5885C5.62252 10.6215 5.7074 10.6385 5.79314 10.6385C5.87887 10.6385 5.96375 10.6215 6.04289 10.5885C6.12203 10.5556 6.19386 10.5073 6.25423 10.4464L8.91039 7.78374C9.52731 7.16714 9.94752 6.38142 10.1178 5.52598C10.2882 4.67054 10.201 3.78379 9.86731 2.97791C9.53362 2.17202 8.96843 1.4832 8.24322 0.998563C7.51802 0.513927 6.66537 0.255249 5.79314 0.255249C4.9209 0.255249 4.06825 0.513927 3.34305 0.998563C2.61784 1.4832 2.05265 2.17202 1.71897 2.97791C1.38528 3.78379 1.29809 4.67054 1.46842 5.52598C1.63876 6.38142 2.05896 7.16714 2.67588 7.78374L5.33204 10.4464ZM2.69537 4.36126C2.73974 3.89823 2.88696 3.45095 3.12628 3.05209C3.3656 2.65322 3.69097 2.31284 4.07865 2.05579C4.58793 1.7214 5.18388 1.54324 5.79314 1.54324C6.40239 1.54324 6.99834 1.7214 7.50762 2.05579C7.89271 2.31196 8.21624 2.65028 8.45496 3.04642C8.69368 3.44256 8.84165 3.88668 8.88822 4.34683C8.93479 4.80699 8.87882 5.27175 8.72432 5.70769C8.56982 6.14363 8.32064 6.53992 7.99469 6.86805L5.79314 9.06961L3.59158 6.86805C3.26525 6.5431 3.01549 6.14948 2.86046 5.71584C2.70542 5.2822 2.64903 4.81944 2.69537 4.36126V4.36126ZM10.3391 11.9336H1.24714C1.07491 11.9336 0.909721 12.002 0.78793 12.1238C0.666139 12.2456 0.597717 12.4108 0.597717 12.583C0.597717 12.7552 0.666139 12.9204 0.78793 13.0422C0.909721 13.164 1.07491 13.2324 1.24714 13.2324H10.3391C10.5114 13.2324 10.6766 13.164 10.7983 13.0422C10.9201 12.9204 10.9886 12.7552 10.9886 12.583C10.9886 12.4108 10.9201 12.2456 10.7983 12.1238C10.6766 12.002 10.5114 11.9336 10.3391 11.9336Z" fill="#EB5E28"/>
</svg>
