<svg width="14" height="14" viewBox="0 0 14 14" fill="none" xmlns="http://www.w3.org/2000/svg">
<path d="M11.6054 7.39431C11.4625 7.39431 11.3132 7.34885 11.1703 7.31638C10.8812 7.25173 10.5969 7.16711 10.3195 7.0631C10.0183 6.9535 9.6871 6.95919 9.38976 7.07908C9.09243 7.19898 8.84994 7.4246 8.70896 7.71253L8.56609 8.01127C7.93538 7.65356 7.35272 7.21711 6.83212 6.71241C6.32742 6.19181 5.89097 5.60915 5.53326 4.97844L5.832 4.84206C6.11993 4.70108 6.34556 4.45859 6.46545 4.16126C6.58534 3.86393 6.59103 3.53276 6.48143 3.23148C6.37829 2.9516 6.29368 2.66523 6.22815 2.37424C6.19568 2.23136 6.1697 2.082 6.15022 1.93912C6.07136 1.48168 5.83176 1.06742 5.47457 0.770957C5.11738 0.474492 4.66608 0.315299 4.20194 0.322047H2.24716C1.97261 0.321688 1.70109 0.379358 1.45039 0.491278C1.19969 0.603197 0.975476 0.766839 0.792445 0.971475C0.605618 1.18166 0.466507 1.42981 0.384672 1.69886C0.302836 1.9679 0.280215 2.25148 0.318363 2.5301C0.671383 5.23311 1.90635 7.74413 3.83176 9.6738C5.76144 11.5992 8.27246 12.8342 10.9755 13.1872C11.0598 13.1936 11.1444 13.1936 11.2287 13.1872C11.7076 13.1879 12.17 13.0122 12.5276 12.6936C12.7322 12.5106 12.8959 12.2864 13.0078 12.0357C13.1197 11.785 13.1774 11.5135 13.177 11.2389V9.29064C13.1735 8.84191 13.0152 8.40814 12.7289 8.06263C12.4425 7.71712 12.0457 7.48105 11.6054 7.39431ZM11.9236 11.2909C11.9234 11.3815 11.9042 11.4711 11.8673 11.5538C11.8304 11.6366 11.7766 11.7107 11.7093 11.7715C11.6381 11.8363 11.5534 11.8845 11.4613 11.9126C11.3692 11.9407 11.272 11.9479 11.1768 11.9338C8.7533 11.6173 6.50107 10.5129 4.76694 8.79058C3.03133 7.05496 1.91727 4.79489 1.59773 2.36125C1.58363 2.266 1.59087 2.16881 1.61895 2.0767C1.64703 1.9846 1.69524 1.8999 1.76009 1.82872C1.82154 1.76063 1.89672 1.70632 1.98067 1.66939C2.06462 1.63245 2.15545 1.61371 2.24716 1.61441H4.19544C4.34557 1.61074 4.49232 1.65921 4.61073 1.75157C4.72914 1.84392 4.81188 1.97446 4.84487 2.12096C4.84487 2.29631 4.90332 2.47815 4.94229 2.65349C5.01734 2.9937 5.11719 3.32797 5.24102 3.65361L4.33182 4.08223C4.17555 4.15397 4.0541 4.28476 3.99412 4.44591C3.92917 4.60402 3.92917 4.78137 3.99412 4.93948C4.92878 6.9415 6.53809 8.55081 8.54011 9.48547C8.69822 9.55042 8.87557 9.55042 9.03368 9.48547C9.19483 9.42549 9.32562 9.30404 9.39736 9.14776L9.8065 8.23857C10.1415 8.36074 10.4843 8.46054 10.8326 8.5373C11.0014 8.57627 11.1833 8.60874 11.3586 8.63472C11.5051 8.66771 11.6357 8.75045 11.728 8.86886C11.8204 8.98727 11.8688 9.13402 11.8652 9.28414L11.9236 11.2909ZM8.09201 0.25061C7.94264 0.25061 7.78678 0.25061 7.63741 0.25061C7.46517 0.265251 7.3058 0.347713 7.19436 0.479856C7.08292 0.612 7.02854 0.783 7.04318 0.955239C7.05782 1.12748 7.14028 1.28685 7.27243 1.39829C7.40457 1.50972 7.57557 1.56411 7.74781 1.54946H8.09201C9.12544 1.54946 10.1165 1.95999 10.8473 2.69074C11.578 3.42149 11.9886 4.4126 11.9886 5.44603C11.9886 5.56293 11.9886 5.67333 11.9886 5.79023C11.9742 5.96155 12.0283 6.13159 12.1391 6.26307C12.2499 6.39455 12.4083 6.47674 12.5796 6.49161H12.6315C12.7941 6.49227 12.951 6.43192 13.0712 6.3225C13.1915 6.21308 13.2663 6.06254 13.2809 5.90063C13.2809 5.75126 13.2809 5.5954 13.2809 5.44603C13.2809 4.06924 12.7345 2.74875 11.7615 1.77461C10.7886 0.800464 9.46879 0.252331 8.09201 0.25061V0.25061ZM9.39086 5.44603C9.39086 5.61827 9.45928 5.78345 9.58107 5.90524C9.70287 6.02703 9.86805 6.09546 10.0403 6.09546C10.2125 6.09546 10.3777 6.02703 10.4995 5.90524C10.6213 5.78345 10.6897 5.61827 10.6897 5.44603C10.6897 4.75707 10.416 4.09634 9.92886 3.60917C9.4417 3.12201 8.78096 2.84832 8.09201 2.84832C7.91977 2.84832 7.75458 2.91674 7.63279 3.03853C7.511 3.16032 7.44258 3.32551 7.44258 3.49775C7.44258 3.66999 7.511 3.83517 7.63279 3.95696C7.75458 4.07875 7.91977 4.14717 8.09201 4.14717C8.43649 4.14717 8.76685 4.28402 9.01044 4.5276C9.25402 4.77118 9.39086 5.10155 9.39086 5.44603Z" fill="#EB5E28"/>
</svg>
