<svg width="22" height="22" viewBox="0 0 22 22" fill="none" xmlns="http://www.w3.org/2000/svg">
<path d="M10.9339 0.565918C8.90609 0.565918 6.92377 1.16725 5.23767 2.29387C3.55156 3.42048 2.23741 5.02179 1.46138 6.89529C0.685351 8.76878 0.482306 10.8303 0.877922 12.8192C1.27354 14.8081 2.25004 16.635 3.68396 18.0689C5.11787 19.5029 6.94479 20.4794 8.93368 20.875C10.9226 21.2706 12.9841 21.0676 14.8576 20.2915C16.7311 19.5155 18.3324 18.2013 19.459 16.5152C20.5856 14.8291 21.187 12.8468 21.187 10.819C21.187 9.47251 20.9218 8.13924 20.4065 6.89529C19.8913 5.65133 19.136 4.52104 18.1839 3.56896C17.2319 2.61688 16.1016 1.86165 14.8576 1.34638C13.6137 0.831121 12.2804 0.565918 10.9339 0.565918V0.565918ZM10.9339 19.0214C9.31166 19.0214 7.7258 18.5403 6.37692 17.639C5.02804 16.7377 3.97671 15.4567 3.35589 13.9579C2.73507 12.4591 2.57263 10.8099 2.88913 9.21874C3.20562 7.62762 3.98682 6.16609 5.13395 5.01896C6.28108 3.87183 7.74262 3.09063 9.33373 2.77413C10.9248 2.45764 12.5741 2.62008 14.0729 3.2409C15.5717 3.86172 16.8527 4.91305 17.754 6.26193C18.6553 7.61081 19.1364 9.19667 19.1364 10.819C19.1364 12.9944 18.2722 15.0807 16.7339 16.6189C15.1957 18.1572 13.1094 19.0214 10.9339 19.0214V19.0214ZM15.0352 9.79365H11.9593V6.71774C11.9593 6.44581 11.8512 6.18502 11.6589 5.99274C11.4667 5.80046 11.2059 5.69244 10.9339 5.69244C10.662 5.69244 10.4012 5.80046 10.2089 5.99274C10.0167 6.18502 9.90864 6.44581 9.90864 6.71774V9.79365H6.83273C6.56081 9.79365 6.30002 9.90167 6.10773 10.094C5.91545 10.2862 5.80743 10.547 5.80743 10.819C5.80743 11.0909 5.91545 11.3517 6.10773 11.544C6.30002 11.7362 6.56081 11.8443 6.83273 11.8443H9.90864V14.9202C9.90864 15.1921 10.0167 15.4529 10.2089 15.6452C10.4012 15.8374 10.662 15.9455 10.9339 15.9455C11.2059 15.9455 11.4667 15.8374 11.6589 15.6452C11.8512 15.4529 11.9593 15.1921 11.9593 14.9202V11.8443H15.0352C15.3071 11.8443 15.5679 11.7362 15.7602 11.544C15.9524 11.3517 16.0605 11.0909 16.0605 10.819C16.0605 10.547 15.9524 10.2862 15.7602 10.094C15.5679 9.90167 15.3071 9.79365 15.0352 9.79365Z" fill="#EB5E28"/>
</svg>
