<svg width="52" height="52" viewBox="0 0 44 44" fill="none" xmlns="http://www.w3.org/2000/svg">
<path d="M29.3326 14.6667C29.3326 16.6116 28.5599 18.4768 27.1847 19.8521C25.8094 21.2274 23.9441 22 21.9992 22C20.0543 22 18.189 21.2274 16.8138 19.8521C15.4385 18.4768 14.6659 16.6116 14.6659 14.6667M6.66013 13.5692L5.37679 28.9692C5.1011 32.2775 4.96326 33.9316 5.52248 35.2077C6.01382 36.3288 6.86511 37.254 7.94157 37.8367C9.16676 38.5 10.8266 38.5 14.1464 38.5H29.8521C33.1718 38.5 34.8317 38.5 36.0569 37.8367C37.1333 37.254 37.9846 36.3288 38.476 35.2077C39.0352 33.9316 38.8974 32.2775 38.6217 28.9692L37.3383 13.5692C37.1011 10.7227 36.9825 9.29946 36.3522 8.22224C35.7971 7.27364 34.9705 6.51311 33.9791 6.03872C32.8533 5.5 31.4251 5.5 28.5687 5.5L15.4297 5.5C12.5734 5.5 11.1452 5.5 10.0193 6.03871C9.02792 6.5131 8.20137 7.27364 7.64629 8.22223C7.01594 9.29946 6.89733 10.7227 6.66013 13.5692Z" stroke="#EB5E28" stroke-width="2" stroke-linecap="round" stroke-linejoin="round"/>
</svg>
