<svg width="39" height="39" viewBox="0 0 39 39" fill="none" xmlns="http://www.w3.org/2000/svg">
<path d="M24.388 27.5681C24.1549 28.1493 23.4948 28.4315 22.9136 28.1984C22.8668 28.1797 22.8214 28.1579 22.7776 28.1331L18.4144 24.7428L15.6141 27.3263C15.4821 27.4238 15.3094 27.4474 15.156 27.3889L15.6929 22.5857L15.71 22.5993L15.721 22.5045C15.721 22.5045 23.5724 15.3563 23.8922 15.0517C24.216 14.748 24.1092 14.6821 24.1092 14.6821C24.1276 14.3115 23.5282 14.6821 23.5282 14.6821L13.1253 21.3747L8.79296 19.8992C8.79296 19.8992 8.12757 19.6606 8.06488 19.1358C7.99899 18.615 8.81465 18.3322 8.81465 18.3322L26.0394 11.4893C26.0394 11.4893 27.4554 10.8585 27.4554 11.9032L24.388 27.5681Z" fill="#EB5E28"/>
<path d="M19.2773 3.21448C10.4007 3.21448 3.2049 10.4104 3.2049 19.2869C3.2049 28.1634 10.4007 35.3593 19.2773 35.3593C28.1538 35.3593 35.3497 28.1634 35.3497 19.2869C35.3497 10.4104 28.1538 3.21448 19.2773 3.21448ZM24.388 27.5681C24.1549 28.1494 23.4948 28.4316 22.9136 28.1984C22.8668 28.1797 22.8214 28.1579 22.7775 28.1331L18.4144 24.7428L15.6141 27.3263C15.4821 27.4238 15.3094 27.4475 15.1561 27.3889L15.6929 22.5857L15.71 22.5994L15.721 22.5045C15.721 22.5045 23.5724 15.3563 23.8922 15.0518C24.216 14.748 24.1092 14.6821 24.1092 14.6821C24.1276 14.3115 23.5282 14.6821 23.5282 14.6821L13.1253 21.3747L8.79295 19.8992C8.79295 19.8992 8.12755 19.6605 8.06487 19.1358C7.99894 18.615 8.81463 18.3322 8.81463 18.3322L26.0394 11.4894C26.0394 11.4894 27.4554 10.8585 27.4554 11.9032L24.388 27.5681Z" fill="#FFFCF2"/>
</svg>
