<svg width="52" height="52" viewBox="0 0 52 52" fill="none" xmlns="http://www.w3.org/2000/svg">
<path d="M11.5186 42.1166C12.8367 39.0113 15.914 36.8333 19.5 36.8333H32.5C36.086 36.8333 39.1633 39.0113 40.4814 42.1166M34.6667 20.5833C34.6667 25.3698 30.7865 29.25 26 29.25C21.2135 29.25 17.3333 25.3698 17.3333 20.5833C17.3333 15.7969 21.2135 11.9167 26 11.9167C30.7865 11.9167 34.6667 15.7969 34.6667 20.5833ZM47.6667 26C47.6667 37.9662 37.9662 47.6667 26 47.6667C14.0338 47.6667 4.33334 37.9662 4.33334 26C4.33334 14.0338 14.0338 4.33334 26 4.33334C37.9662 4.33334 47.6667 14.0338 47.6667 26Z" stroke="black" stroke-width="2" stroke-linecap="round" stroke-linejoin="round"/>
</svg>
