<svg width="40" height="40" viewBox="0 0 40 40" fill="none" xmlns="http://www.w3.org/2000/svg">
<path d="M36.2615 11.2637C36.2479 10.5741 36.1923 9.88594 36.0951 9.20306C35.9799 8.59643 35.784 8.00793 35.5128 7.45318C34.918 6.27759 33.9638 5.32233 32.7889 4.72625C32.2374 4.45577 31.6523 4.26004 31.0491 4.14422C30.361 4.04511 29.6675 3.9885 28.9725 3.97472C28.6776 3.96402 28.296 3.95873 28.1199 3.95873L12.2923 3.95618C12.1169 3.95618 11.7352 3.96148 11.44 3.97198C10.7504 3.98553 10.0623 4.04109 9.37939 4.13834C8.77277 4.2536 8.18426 4.44941 7.62951 4.72056C6.45394 5.31549 5.49867 6.26972 4.90247 7.44464C4.63208 7.99615 4.43635 8.58122 4.32046 9.18442C4.22142 9.87247 4.16481 10.566 4.15094 11.261C4.14045 11.5559 4.13506 11.9375 4.13506 12.1135L4.13251 27.9412C4.13251 28.1165 4.13781 28.4982 4.14831 28.7935C4.16186 29.4831 4.21742 30.1712 4.31467 30.8541C4.42994 31.4607 4.62575 32.0492 4.89689 32.604C5.49179 33.7795 6.44599 34.7348 7.62088 35.3309C8.17243 35.6013 8.75752 35.797 9.36075 35.9129C10.0488 36.0121 10.7423 36.0687 11.4373 36.0824C11.7321 36.093 12.1138 36.0984 12.2898 36.0984L28.1175 36.101C28.2928 36.101 28.6746 36.0957 28.9697 36.0852C29.6593 36.0716 30.3475 36.016 31.0304 35.9188C31.637 35.8035 32.2255 35.6077 32.7802 35.3366C33.9558 34.7417 34.9111 33.7874 35.5072 32.6125C35.7777 32.061 35.9734 31.476 36.0893 30.8727C36.1884 30.1847 36.245 29.4912 36.2589 28.7962C36.2695 28.5013 36.2748 28.1197 36.2748 27.9437L36.2773 12.116C36.2773 11.9407 36.272 11.5589 36.2615 11.2637ZM20.5533 31.2093H20.5486C18.6355 31.2092 16.753 30.7299 15.0728 29.8151L8.99857 31.4079L10.6242 25.4721C9.36476 23.2869 8.86148 20.7473 9.19234 18.247C9.5232 15.7466 10.6697 13.4253 12.4541 11.6429C14.2385 9.86043 16.5611 8.7165 19.0619 8.38842C21.5626 8.06035 24.1017 8.56646 26.2854 9.82829C28.4692 11.0901 30.1757 13.0372 31.1404 15.3675C32.105 17.6979 32.2738 20.2814 31.6207 22.7176C30.9676 25.1537 29.529 27.3062 27.528 28.8416C25.527 30.3769 23.0754 31.2091 20.5533 31.2093Z" fill="#FFFCF2"/>
<path d="M20.557 10.2262C18.8552 10.2258 17.1843 10.6813 15.7182 11.5455C14.2521 12.4096 13.0442 13.6507 12.2202 15.1397C11.3963 16.6288 10.9863 18.3114 11.0329 20.0126C11.0796 21.7138 11.5811 23.3714 12.4854 24.8131L12.7119 25.1733L11.7498 28.6865L15.3542 27.7412L15.702 27.9476C17.1696 28.8166 18.8438 29.2749 20.5493 29.2747H20.5532C23.077 29.272 25.4966 28.2676 27.2805 26.4822C29.0644 24.6967 30.0666 22.2762 30.0671 19.7524C30.0676 17.2285 29.0663 14.8076 27.2832 13.0215C25.5001 11.2353 23.0809 10.2299 20.557 10.2262H20.557ZM26.1589 23.8395C25.9481 24.1874 25.6675 24.4879 25.335 24.7221C25.0024 24.9563 24.6249 25.1192 24.2263 25.2005C23.6246 25.3034 23.0071 25.2646 22.423 25.0871C21.8687 24.915 21.3239 24.7137 20.7909 24.4841C18.8135 23.4919 17.1281 22.0026 15.9 20.1624C15.2304 19.3103 14.8242 18.2813 14.731 17.2016C14.723 16.7559 14.808 16.3133 14.9806 15.9022C15.1531 15.4911 15.4094 15.1205 15.7331 14.8139C15.8287 14.7048 15.9459 14.6166 16.0773 14.555C16.2087 14.4934 16.3514 14.4596 16.4965 14.4557C16.6873 14.4557 16.8784 14.4575 17.0452 14.4659C17.2209 14.4746 17.457 14.3991 17.6894 14.9572C17.9279 15.5302 18.5005 16.939 18.5721 17.0822C18.6174 17.1572 18.6434 17.2424 18.6475 17.3299C18.6517 17.4175 18.634 17.5047 18.596 17.5837C18.5238 17.7557 18.4274 17.9165 18.3096 18.0612C18.1665 18.2284 18.009 18.4344 17.8803 18.5627C17.7369 18.7054 17.5876 18.8603 17.7546 19.1468C18.1846 19.8828 18.7214 20.551 19.3474 21.1295C20.0264 21.7333 20.8055 22.2141 21.6497 22.5502C21.936 22.6935 22.103 22.6696 22.27 22.4786C22.437 22.2876 22.9857 21.6428 23.1765 21.3563C23.3673 21.0699 23.5582 21.1176 23.8206 21.2131C24.083 21.3087 25.4907 22.001 25.7771 22.1443C26.0634 22.2875 26.2542 22.3592 26.3257 22.4786C26.4042 22.9388 26.3462 23.412 26.1589 23.8396V23.8395Z" fill="#EB5E28"/>
</svg>
